<mxfile host="65bd71144e">
    <diagram id="u_EyxP7I75LIzb6LYUxE" name="Страница 1">
        <mxGraphModel dx="3448" dy="650" grid="1" gridSize="10" guides="1" tooltips="1" connect="1" arrows="1" fold="1" page="1" pageScale="1" pageWidth="827" pageHeight="1169" math="0" shadow="0">
            <root>
                <mxCell id="0"/>
                <mxCell id="1" parent="0"/>
                <mxCell id="Pinv0qDsa1NJ0LJ_d0EH-5" value="" style="group" parent="1" vertex="1" connectable="0">
                    <mxGeometry x="-1870" y="50" width="190" height="120" as="geometry"/>
                </mxCell>
                <mxCell id="Pinv0qDsa1NJ0LJ_d0EH-3" value="«interface»&lt;br&gt;&lt;span&gt;Transport&lt;/span&gt;&lt;br&gt;&lt;br&gt;&lt;br&gt;&lt;div style=&quot;text-align: left&quot;&gt;&lt;span style=&quot;font-weight: normal&quot;&gt;+load(): void;&lt;/span&gt;&lt;/div&gt;&lt;div style=&quot;text-align: left&quot;&gt;&lt;span style=&quot;font-weight: normal&quot;&gt;+deliver(in $cargo: string): void;&lt;/span&gt;&lt;/div&gt;&lt;div style=&quot;text-align: left&quot;&gt;&lt;span style=&quot;font-weight: normal&quot;&gt;+unload(): void;&lt;/span&gt;&lt;/div&gt;" style="html=1;fontStyle=1" parent="Pinv0qDsa1NJ0LJ_d0EH-5" vertex="1">
                    <mxGeometry width="190" height="120" as="geometry"/>
                </mxCell>
                <mxCell id="Pinv0qDsa1NJ0LJ_d0EH-4" value="" style="line;strokeWidth=1;fillColor=none;align=left;verticalAlign=middle;spacingTop=-1;spacingLeft=3;spacingRight=3;rotatable=0;labelPosition=right;points=[];portConstraint=eastwest;" parent="Pinv0qDsa1NJ0LJ_d0EH-5" vertex="1">
                    <mxGeometry y="50" width="190" height="8" as="geometry"/>
                </mxCell>
                <mxCell id="VqiaMNYEF81Nw4HCaLkb-1" value="Truck" style="swimlane;fontStyle=1;align=center;verticalAlign=top;childLayout=stackLayout;horizontal=1;startSize=26;horizontalStack=0;resizeParent=1;resizeParentMax=0;resizeLast=0;collapsible=1;marginBottom=0;" parent="1" vertex="1">
                    <mxGeometry x="-1720" y="230" width="230" height="100" as="geometry"/>
                </mxCell>
                <mxCell id="VqiaMNYEF81Nw4HCaLkb-4" value="+load(): void;&#10;+deliver(in $cargo: string): void;&#10;+unload(): void;" style="text;strokeColor=none;fillColor=none;align=left;verticalAlign=top;spacingLeft=4;spacingRight=4;overflow=hidden;rotatable=0;points=[[0,0.5],[1,0.5]];portConstraint=eastwest;" parent="VqiaMNYEF81Nw4HCaLkb-1" vertex="1">
                    <mxGeometry y="26" width="230" height="74" as="geometry"/>
                </mxCell>
                <mxCell id="VqiaMNYEF81Nw4HCaLkb-5" value="Plane" style="swimlane;fontStyle=1;align=center;verticalAlign=top;childLayout=stackLayout;horizontal=1;startSize=26;horizontalStack=0;resizeParent=1;resizeParentMax=0;resizeLast=0;collapsible=1;marginBottom=0;" parent="1" vertex="1">
                    <mxGeometry x="-2020" y="230" width="210" height="100" as="geometry"/>
                </mxCell>
                <mxCell id="VqiaMNYEF81Nw4HCaLkb-8" value="+load(): void;&#10;+deliver(in $cargo: string): void;&#10;+unload(): void;" style="text;strokeColor=none;fillColor=none;align=left;verticalAlign=top;spacingLeft=4;spacingRight=4;overflow=hidden;rotatable=0;points=[[0,0.5],[1,0.5]];portConstraint=eastwest;" parent="VqiaMNYEF81Nw4HCaLkb-5" vertex="1">
                    <mxGeometry y="26" width="210" height="74" as="geometry"/>
                </mxCell>
                <mxCell id="VqiaMNYEF81Nw4HCaLkb-11" value="" style="endArrow=block;dashed=1;endFill=0;endSize=12;html=1;rounded=0;exitX=0.5;exitY=0;exitDx=0;exitDy=0;" parent="1" source="VqiaMNYEF81Nw4HCaLkb-5" edge="1">
                    <mxGeometry width="160" relative="1" as="geometry">
                        <mxPoint x="-1970" y="190" as="sourcePoint"/>
                        <mxPoint x="-1870" y="170" as="targetPoint"/>
                    </mxGeometry>
                </mxCell>
                <mxCell id="VqiaMNYEF81Nw4HCaLkb-12" value="" style="endArrow=block;dashed=1;endFill=0;endSize=12;html=1;rounded=0;entryX=1;entryY=1;entryDx=0;entryDy=0;exitX=0.5;exitY=0;exitDx=0;exitDy=0;" parent="1" source="VqiaMNYEF81Nw4HCaLkb-1" target="Pinv0qDsa1NJ0LJ_d0EH-3" edge="1">
                    <mxGeometry width="160" relative="1" as="geometry">
                        <mxPoint x="-1810" y="230" as="sourcePoint"/>
                        <mxPoint x="-1717.5" y="170" as="targetPoint"/>
                    </mxGeometry>
                </mxCell>
                <mxCell id="VqiaMNYEF81Nw4HCaLkb-14" value="&lt;p style=&quot;margin: 0px ; margin-top: 4px ; text-align: center&quot;&gt;&lt;b&gt;&lt;i&gt;Logistic&lt;/i&gt;&lt;/b&gt;&lt;/p&gt;&lt;hr size=&quot;1&quot;&gt;&lt;div style=&quot;height: 2px&quot;&gt;&amp;nbsp; +&lt;i&gt;getTransport&lt;/i&gt;(): Transport;&lt;/div&gt;&lt;div style=&quot;height: 2px&quot;&gt;&lt;br&gt;&lt;/div&gt;&lt;div style=&quot;height: 2px&quot;&gt;&lt;br&gt;&lt;/div&gt;&lt;div style=&quot;height: 2px&quot;&gt;&lt;br&gt;&lt;/div&gt;&lt;div style=&quot;height: 2px&quot;&gt;&lt;br&gt;&lt;/div&gt;&lt;div style=&quot;height: 2px&quot;&gt;&lt;br&gt;&lt;/div&gt;&lt;div style=&quot;height: 2px&quot;&gt;&lt;br&gt;&lt;/div&gt;&lt;div style=&quot;height: 2px&quot;&gt;&lt;br&gt;&lt;/div&gt;&lt;div style=&quot;height: 2px&quot;&gt;&lt;br&gt;&lt;/div&gt;&lt;div style=&quot;height: 2px&quot;&gt;&amp;nbsp; +deliverCargo(in $cargoName: string): void&lt;/div&gt;&lt;div style=&quot;height: 2px&quot;&gt;&lt;br&gt;&lt;/div&gt;" style="verticalAlign=top;align=left;overflow=fill;fontSize=12;fontFamily=Helvetica;html=1;" parent="1" vertex="1">
                    <mxGeometry x="-2342" y="90" width="250" height="100" as="geometry"/>
                </mxCell>
                <mxCell id="VqiaMNYEF81Nw4HCaLkb-16" value="AirLogisric" style="swimlane;fontStyle=1;align=center;verticalAlign=top;childLayout=stackLayout;horizontal=1;startSize=26;horizontalStack=0;resizeParent=1;resizeParentMax=0;resizeLast=0;collapsible=1;marginBottom=0;" parent="1" vertex="1">
                    <mxGeometry x="-2430" y="320" width="160" height="52" as="geometry"/>
                </mxCell>
                <mxCell id="VqiaMNYEF81Nw4HCaLkb-19" value="+ getTransport(): Transport" style="text;strokeColor=none;fillColor=none;align=left;verticalAlign=top;spacingLeft=4;spacingRight=4;overflow=hidden;rotatable=0;points=[[0,0.5],[1,0.5]];portConstraint=eastwest;" parent="VqiaMNYEF81Nw4HCaLkb-16" vertex="1">
                    <mxGeometry y="26" width="160" height="26" as="geometry"/>
                </mxCell>
                <mxCell id="VqiaMNYEF81Nw4HCaLkb-20" value="RoadLogistic" style="swimlane;fontStyle=1;align=center;verticalAlign=top;childLayout=stackLayout;horizontal=1;startSize=26;horizontalStack=0;resizeParent=1;resizeParentMax=0;resizeLast=0;collapsible=1;marginBottom=0;" parent="1" vertex="1">
                    <mxGeometry x="-2230" y="320" width="160" height="52" as="geometry"/>
                </mxCell>
                <mxCell id="VqiaMNYEF81Nw4HCaLkb-23" value="+ getTransport(): Transport" style="text;strokeColor=none;fillColor=none;align=left;verticalAlign=top;spacingLeft=4;spacingRight=4;overflow=hidden;rotatable=0;points=[[0,0.5],[1,0.5]];portConstraint=eastwest;" parent="VqiaMNYEF81Nw4HCaLkb-20" vertex="1">
                    <mxGeometry y="26" width="160" height="26" as="geometry"/>
                </mxCell>
                <mxCell id="VqiaMNYEF81Nw4HCaLkb-24" value="Extends" style="endArrow=block;endSize=16;endFill=0;html=1;rounded=0;entryX=0.808;entryY=1;entryDx=0;entryDy=0;entryPerimeter=0;exitX=0.5;exitY=0;exitDx=0;exitDy=0;" parent="1" source="VqiaMNYEF81Nw4HCaLkb-20" target="VqiaMNYEF81Nw4HCaLkb-14" edge="1">
                    <mxGeometry width="160" relative="1" as="geometry">
                        <mxPoint x="-2280" y="279.5" as="sourcePoint"/>
                        <mxPoint x="-2120" y="279.5" as="targetPoint"/>
                    </mxGeometry>
                </mxCell>
                <mxCell id="VqiaMNYEF81Nw4HCaLkb-25" value="Extends" style="endArrow=block;endSize=16;endFill=0;html=1;rounded=0;exitX=0.5;exitY=0;exitDx=0;exitDy=0;entryX=0.088;entryY=1;entryDx=0;entryDy=0;entryPerimeter=0;" parent="1" source="VqiaMNYEF81Nw4HCaLkb-16" target="VqiaMNYEF81Nw4HCaLkb-14" edge="1">
                    <mxGeometry width="160" relative="1" as="geometry">
                        <mxPoint x="-2360" y="270" as="sourcePoint"/>
                        <mxPoint x="-2200" y="270" as="targetPoint"/>
                    </mxGeometry>
                </mxCell>
                <mxCell id="VqiaMNYEF81Nw4HCaLkb-26" value="Use" style="endArrow=open;endSize=12;dashed=1;html=1;rounded=0;exitX=1;exitY=0.5;exitDx=0;exitDy=0;entryX=0;entryY=0.75;entryDx=0;entryDy=0;" parent="1" source="VqiaMNYEF81Nw4HCaLkb-14" target="Pinv0qDsa1NJ0LJ_d0EH-3" edge="1">
                    <mxGeometry width="160" relative="1" as="geometry">
                        <mxPoint x="-1890" y="130" as="sourcePoint"/>
                        <mxPoint x="-1730" y="130" as="targetPoint"/>
                    </mxGeometry>
                </mxCell>
            </root>
        </mxGraphModel>
    </diagram>
</mxfile>